Run_40002
nRows=4
nColumns=164

# SIMM Motion File Header:
name Run_40002
datacolumns 164
datarows 4
otherdata 1
range 4.09000000 4.12000000
endheader
time	pelvis_tilt	pelvis_list	pelvis_rotation	pelvis_tx	pelvis_ty	pelvis_tz	hip_flexion_r	hip_adduction_r	hip_rotation_r	knee_angle_r	ankle_angle_r	hip_flexion_l	hip_adduction_l	hip_rotation_l	knee_angle_l	ankle_angle_l	lumbar_extension	lumbar_bending	lumbar_rotation	arm_flex_r	arm_add_r	arm_rot_r	elbow_flex_r	pro_sup_r	arm_flex_l	arm_add_l	arm_rot_l	elbow_flex_l	pro_sup_l	subtalar_angle_r	mtp_angle_r	subtalar_angle_l	mtp_angle_l	wrist_flex_r	wrist_dev_r	wrist_flex_l	wrist_dev_l	LASI_tx	LASI_ty	LASI_tz	RASI_tx	RASI_ty	RASI_tz	LPSI_tx	LPSI_ty	LPSI_tz	RPSI_tx	RPSI_ty	RPSI_tz	RTH1_tx	RTH1_ty	RTH1_tz	RTH3_tx	RTH3_ty	RTH3_tz	LTH1_tx	LTH1_ty	LTH1_tz	LTH2_tx	LTH2_ty	LTH2_tz	LTH3_tx	LTH3_ty	LTH3_tz	RTB1_tx	RTB1_ty	RTB1_tz	RTB2_tx	RTB2_ty	RTB2_tz	LTB1_tx	LTB1_ty	LTB1_tz	LTB2_tx	LTB2_ty	LTB2_tz	RCAL_tx	RCAL_ty	RCAL_tz	RTOE_tx	RTOE_ty	RTOE_tz	LCAL_tx	LCAL_ty	LCAL_tz	LTOE_tx	LTOE_ty	LTOE_tz	LACR_tx	LACR_ty	LACR_tz	RACR_tx	RACR_ty	RACR_tz	CLAV_tx	CLAV_ty	CLAV_tz	C7_tx	C7_ty	C7_tz	RUA1_tx	RUA1_ty	RUA1_tz	RUA2_tx	RUA2_ty	RUA2_tz	RUA3_tx	RUA3_ty	RUA3_tz	RLEL_tx	RLEL_ty	RLEL_tz	RMEL_tx	RMEL_ty	RMEL_tz	LUA1_tx	LUA1_ty	LUA1_tz	LUA2_tx	LUA2_ty	LUA2_tz	LUA3_tx	LUA3_ty	LUA3_tz	LLEL_tx	LLEL_ty	LLEL_tz	LMEL_tx	LMEL_ty	LMEL_tz	RFAsuperior_tx	RFAsuperior_ty	RFAsuperior_tz	RFAradius_tx	RFAradius_ty	RFAradius_tz	RFAulna_tx	RFAulna_ty	RFAulna_tz	LFAsuperior_tx	LFAsuperior_ty	LFAsuperior_tz	LFAradius_tx	LFAradius_ty	LFAradius_tz	LFAulna_tx	LFAulna_ty	LFAulna_tz	RTH2_tx	RTH2_ty	RTH2_tz	RTB3_tx	RTB3_ty	RTB3_tz	RMT5_tx	RMT5_ty	RMT5_tz	LMT5_tx	LMT5_ty	LMT5_tz	LTB3_tx	LTB3_ty	LTB3_tz
      4.09000000	     -7.72075701	     -0.61332261	      0.21594979	      0.79285016	      1.04712290	     -0.32924891	     30.34813411	      3.59020699	     -4.56396527	     -8.76351677	    -16.86454086	    -10.39836052	      0.45558967	     -7.88063029	    -58.05958640	    -25.54211392	     -0.10007917	      1.95936320	    -18.80558217	    -38.34725490	    -26.89634100	      1.85682446	     87.78303341	     72.28289040	     -4.99877983	    -39.88731658	     18.73195476	    123.82662502	     76.07210255	      0.00000000	      0.00000000	      0.00000000	      0.00000000	      0.00000000	      0.00000000	      0.00000000	      0.00000000	      0.79563754	      1.03826792	     -0.45448182	      0.78768090	      1.05326395	     -0.20927603	      0.62379104	      1.13289609	     -0.38199619	      0.61678210	      1.12719414	     -0.29771322	      0.75612153	      0.92070693	     -0.14432144	      0.81557262	      0.68489762	     -0.18001808	      0.70107330	      0.92933576	     -0.51773637	      0.71760150	      0.79472367	     -0.49044119	      0.58877766	      0.69747742	     -0.48629850	      0.95324303	      0.47709655	     -0.23742508	      0.92894659	      0.36611013	     -0.19399371	      0.46955170	      0.50141858	     -0.41892613	      0.37283159	      0.53223747	     -0.47669758	      0.90688512	      0.12760193	     -0.29478210	      1.13516970	      0.15597215	     -0.27345953	      0.11944700	      0.54384752	     -0.36767250	      0.10735197	      0.31233425	     -0.35247443	      0.80811489	      1.58104731	     -0.47375790	      0.71527695	      1.57402461	     -0.15979478	      0.82348444	      1.53395888	     -0.27894340	      0.70264078	      1.60455435	     -0.34983523	      0.60974832	      1.51407132	     -0.09119222	      0.53383732	      1.46439042	     -0.14558817	      0.52685003	      1.43253466	     -0.07063265	      0.46856813	      1.35016267	     -0.04600098	      0.45315083	      1.33819180	     -0.12695103	      0.81148285	      1.49412487	     -0.58598828	      0.75337328	      1.41155098	     -0.61180037	      0.82150412	      1.39225346	     -0.64939132	      0.84798118	      1.31234985	     -0.69016425	      0.78766710	      1.26463002	     -0.66937129	      0.49819575	      1.27425706	     -0.03462217	      0.65651214	      1.14232600	     -0.06556333	      0.59495501	      1.10615648	     -0.06281834	      0.92072181	      1.28502314	     -0.59192102	      0.95051711	      1.31803272	     -0.44193142	      0.96296751	      1.25235654	     -0.45658568	      0.84851317	      0.80362716	     -0.16050540	      0.99290749	      0.28167956	     -0.25073655	      1.10897306	      0.10186336	     -0.19773840	      0.05256432	      0.33921473	     -0.42061062	      0.26946174	      0.45352272	     -0.39815589
      4.10000000	     -7.36324805	     -0.69413122	     -0.37951669	      0.79328054	      1.04264167	     -0.32778269	     29.24700131	      4.12705088	     -6.73353619	     -7.48348807	    -17.77691121	     -9.50523774	      0.09113265	     -8.35209821	    -64.30310311	    -24.01399092	     -0.32327469	      2.26837890	    -17.84751665	    -37.79303767	    -26.66331642	      1.45656272	     87.77822069	     72.01296148	     -6.29687481	    -39.55407724	     18.88200295	    121.96789684	     75.01374129	      0.00000000	      0.00000000	      0.00000000	      0.00000000	      0.00000000	      0.00000000	      0.00000000	      0.00000000	      0.79732618	      1.03446758	     -0.45349368	      0.78757792	      1.04786517	     -0.20831365	      0.62386252	      1.12720079	     -0.38287384	      0.61636065	      1.12151882	     -0.29885303	      0.75285198	      0.91326658	     -0.14147007	      0.80789510	      0.67753117	     -0.18264106	      0.70476077	      0.92369615	     -0.51736575	      0.72339141	      0.78940943	     -0.48987849	      0.59720459	      0.69012739	     -0.48614947	      0.94720898	      0.47168693	     -0.23912878	      0.92407518	      0.35979238	     -0.19667461	      0.47472414	      0.50070875	     -0.41841649	      0.38064710	      0.53993056	     -0.47587017	      0.90660734	      0.12356657	     -0.30174864	      1.13389471	      0.14868340	     -0.26967775	      0.12960322	      0.57253461	     -0.36453492	      0.09890278	      0.34251540	     -0.35939291	      0.80685551	      1.57748428	     -0.47263434	      0.71486816	      1.56865346	     -0.15782195	      0.82290881	      1.52965910	     -0.27762301	      0.70156280	      1.60055514	     -0.34770858	      0.60912584	      1.50662539	     -0.08929017	      0.53420887	      1.45673706	     -0.14414042	      0.52800740	      1.42461001	     -0.06915937	      0.47075354	      1.34083748	     -0.04407080	      0.45586046	      1.32876187	     -0.12475796	      0.80742251	      1.49144693	     -0.58525800	      0.74805693	      1.40950541	     -0.61018694	      0.81555704	      1.38933809	     -0.64876697	      0.84046891	      1.30891871	     -0.69029434	      0.77888283	      1.26265364	     -0.66959592	      0.50167529	      1.26571001	     -0.03227030	      0.66194674	      1.13569460	     -0.06304514	      0.60075787	      1.09868980	     -0.06075563	      0.91406432	      1.27567004	     -0.59423077	      0.94818512	      1.30277307	     -0.44382461	      0.95653601	      1.23727100	     -0.46050398	      0.84122010	      0.79461379	     -0.15821111	      0.99018193	      0.27670833	     -0.25263457	      1.10395737	      0.09370385	     -0.19632347	      0.04749748	      0.37656613	     -0.42660981	      0.27121456	      0.47026983	     -0.39765658
      4.11000000	     -7.04517437	     -0.88104251	     -0.96866810	      0.79301214	      1.03726639	     -0.32620030	     28.45752814	      4.76614608	     -8.22294955	     -7.55261718	    -18.75458205	     -8.33466610	     -0.46120999	     -8.78287257	    -70.68301685	    -22.09022163	     -0.57093049	      2.67941744	    -16.87195519	    -36.74376608	    -26.47897143	      1.41917154	     87.47320005	     71.48713393	     -7.65313854	    -39.20107520	     18.93084523	    119.82951232	     74.14469554	      0.00000000	      0.00000000	      0.00000000	      0.00000000	      0.00000000	      0.00000000	      0.00000000	      0.00000000	      0.79834560	      1.02973541	     -0.45235064	      0.78677241	      1.04151212	     -0.20712343	      0.62333771	      1.12040271	     -0.38343174	      0.61546019	      1.11526293	     -0.29958790	      0.74877819	      0.90616699	     -0.13946183	      0.80231129	      0.67139225	     -0.18570833	      0.70801173	      0.91684048	     -0.51695104	      0.72936364	      0.78326689	     -0.48959462	      0.60597789	      0.68154698	     -0.48639751	      0.94051341	      0.46465468	     -0.24085743	      0.91674021	      0.35239219	     -0.19917334	      0.48178890	      0.49903148	     -0.41867922	      0.39105342	      0.54699751	     -0.47532873	      0.89899164	      0.11832728	     -0.30747057	      1.12564168	      0.13676329	     -0.26878325	      0.14356282	      0.59856287	     -0.36110574	      0.09607252	      0.37125289	     -0.36781407	      0.80536043	      1.57291776	     -0.47208160	      0.71437737	      1.56190312	     -0.15581131	      0.82237305	      1.52433148	     -0.27626406	      0.70043446	      1.59510988	     -0.34558070	      0.60915450	      1.49744312	     -0.08699756	      0.53440495	      1.44691860	     -0.14185901	      0.52982794	      1.41419369	     -0.06698650	      0.47407762	      1.32915961	     -0.04138177	      0.45933403	      1.31713188	     -0.12161070	      0.80313873	      1.48732232	     -0.58441378	      0.74236560	      1.40643967	     -0.60891213	      0.80908499	      1.38520467	     -0.64860923	      0.83205082	      1.30443346	     -0.69058350	      0.76892226	      1.25989894	     -0.66956142	      0.50640884	      1.25489228	     -0.02934144	      0.66879339	      1.12723183	     -0.06043554	      0.60812705	      1.08919977	     -0.05868063	      0.90648016	      1.26485214	     -0.59721716	      0.94514794	      1.28524750	     -0.44660462	      0.94938165	      1.22020068	     -0.46564001	      0.83590605	      0.78791349	     -0.15621684	      0.98314692	      0.26926349	     -0.25471957	      1.09276656	      0.08102468	     -0.19783291	      0.04879000	      0.41243759	     -0.43401954	      0.27649821	      0.48563491	     -0.39778923
      4.12000000	     -6.80171300	     -1.10603723	     -1.51175448	      0.79207372	      1.03101216	     -0.32481640	     27.87720985	      5.40232252	     -8.30652723	     -8.71748174	    -19.59819452	     -6.82940349	     -1.09041286	     -9.10791311	    -77.13208375	    -19.88609207	     -0.81097311	      3.14693442	    -15.84531960	    -35.32779490	    -26.33896505	      1.61301267	     86.98598326	     70.71212494	     -8.92959110	    -38.81577837	     19.01660875	    117.41637003	     73.59044466	      0.00000000	      0.00000000	      0.00000000	      0.00000000	      0.00000000	      0.00000000	      0.00000000	      0.00000000	      0.79865310	      1.02415462	     -0.45144624	      0.78549260	      1.03451579	     -0.20605256	      0.62231226	      1.11273574	     -0.38383391	      0.61426434	      1.10853418	     -0.29995732	      0.74431459	      0.89930488	     -0.13918608	      0.79844949	      0.66575863	     -0.18797182	      0.71103062	      0.90913043	     -0.51680182	      0.73549742	      0.77652590	     -0.48966964	      0.61524769	      0.67192922	     -0.48724297	      0.93346030	      0.45551411	     -0.24193298	      0.90700080	      0.34364743	     -0.20100448	      0.49094670	      0.49631286	     -0.41984827	      0.40424660	      0.55287438	     -0.47544264	      0.88362480	      0.11210849	     -0.31087874	      1.11058465	      0.12092312	     -0.27352210	      0.16065886	      0.62177899	     -0.35841819	      0.09898395	      0.39799730	     -0.37611922	      0.80353253	      1.56745696	     -0.47208803	      0.71399044	      1.55384092	     -0.15379188	      0.82186481	      1.51800948	     -0.27488730	      0.69941619	      1.58840302	     -0.34348486	      0.61027724	      1.48714642	     -0.08393667	      0.53480857	      1.43498048	     -0.13868962	      0.53256467	      1.40143378	     -0.06413713	      0.47882121	      1.31584895	     -0.03776938	      0.46359900	      1.30352618	     -0.11761980	      0.79854126	      1.48176914	     -0.58375203	      0.73623610	      1.40232146	     -0.60790256	      0.80212189	      1.37996562	     -0.64888099	      0.82288939	      1.29906143	     -0.69097725	      0.75799677	      1.25650322	     -0.66929898	      0.51244602	      1.24206321	     -0.02595672	      0.67715864	      1.11749777	     -0.05770127	      0.61714110	      1.07824362	     -0.05654409	      0.89795977	      1.25280906	     -0.60079764	      0.94112872	      1.26578752	     -0.45024524	      0.94138342	      1.20148994	     -0.47199062	      0.83312302	      0.78244269	     -0.15547552	      0.97198753	      0.25919876	     -0.25670880	      1.07600943	      0.06649429	     -0.20267916	      0.05643065	      0.44527804	     -0.44180654	      0.28533943	      0.49936314	     -0.39855411
